# xmcd
# Track frame offsets:
# 150
# 16522
# 28927
# 40890
# 53545
# 70872
# 83585
# 100325
# 116382
# 131517
# 144982
# 159342
# 176002
#
# Disc length: 2612 seconds
# Revision: 0
# Processed by: cddbd v1.4PL0 Copyright (c) Steve Scherf et al.
# Submitted via: VisiTrax 2.9.5.180 - For more info visit www.synapsa.com
#
DISCID=990a320d
DTITLE=Sandy Kelly - Kelly's Heroes
DYEAR=1900
DGENRE=
TTITLE0=Sandy Kelly/Willie Nelson - Against the wind
TTITLE1=Sandy Kelly/George Hamilton V - Half a mind
TTITLE2=Sandy Kelly/Patsy Cline - Walking after midnight
TTITLE3=Sandy Kelly/Hal Ketchum - When the leaves turn to brown
TTITLE4=Sandy Kelly/Johnny Cash - Woodcarver
TTITLE5=Sandy Kelly/Glen Campbell - As we danced (to the world's greatest song
TTITLE5=)
TTITLE6=Sandy Kelly/Gary Morris - I love you only
TTITLE7=Sandy Kelly/Randy Van Warmer - I will whisper your name
TTITLE8=Sandy Kelly/Tommy Cash - Old flames
TTITLE9=Sandy Kelly/Jett Williams - Jambalaya
TTITLE10=Sandy Kelly/Willie Nelson - Crazy
TTITLE11=Sandy Kelly/George Hamilton IV - The way old friends do
TTITLE12=Sandy Kelly - Love can build a bridge
EXTD=
EXTT0=
EXTT1=
EXTT2=
EXTT3=
EXTT4=
EXTT5=
EXTT6=
EXTT7=
EXTT8=
EXTT9=
EXTT10=
EXTT11=
EXTT12=
PLAYORDER=
